<?xml version="1.0" encoding="UTF-8"?>
<svg xmlns="http://www.w3.org/2000/svg" width="1280" height="720" viewBox="0 0 1280 720" role="img" aria-label="Track · Hold">
  <defs>
    <linearGradient id="g" x1="0" y1="0" x2="1" y2="1">
      <stop offset="0%" stop-color="#1c222a"/>
      <stop offset="55%" stop-color="#0c0e11"/>
      <stop offset="100%" stop-color="#14181e"/>
    </linearGradient>
    <pattern id="grid" width="32" height="32" patternUnits="userSpaceOnUse">
      <path d="M32 0H0V32" fill="none" stroke="rgba(255,255,255,0.04)" stroke-width="1"/>
    </pattern>
  </defs>
  <rect width="1280" height="720" fill="url(#g)"/>
  <rect width="1280" height="720" fill="url(#grid)"/>
  <rect x="24" y="24" width="1232" height="672" rx="6" fill="#14181e" stroke="rgba(255,255,255,0.08)" stroke-width="1"/>
  <rect x="24" y="24" width="1232" height="48" rx="6" fill="#1c222a"/>
  <rect x="24" y="66" width="1232" height="1" fill="rgba(255,255,255,0.06)"/>
  <circle cx="52" cy="48" r="5" fill="#e05c57" opacity="0.85"/>
  <circle cx="72" cy="48" r="5" fill="#e0ad5a" opacity="0.85"/>
  <circle cx="92" cy="48" r="5" fill="#59b87a" opacity="0.85"/>
  <text x="120" y="53" fill="#d4923c" font-family="ui-monospace, Cascadia Code, monospace" font-size="14" letter-spacing="0.18em">STUDIO G · TRACK · HOLD</text>
  
  <rect x="80" y="120" width="1120" height="480" rx="4" fill="#0c0e11" stroke="rgba(255,255,255,0.08)"/>
  <ellipse cx="560" cy="360" rx="320" ry="170" fill="#1c222a" opacity="0.85"/>
  <path d="M280 420 C380 260, 620 250, 780 400 S960 480, 860 300" fill="none" stroke="#d4923c" stroke-width="3"/>
  <path d="M300 430 C390 290, 600 270, 760 410" fill="none" stroke="#59b87a" stroke-width="1.75" opacity="0.85"/>
  
    <rect x="360" y="340" width="22" height="22" fill="#f2f2ec" stroke="#d4923c"/>
  
    <rect x="520" y="290" width="22" height="22" fill="#f2f2ec" stroke="#d4923c"/>
  
    <rect x="680" y="370" width="22" height="22" fill="#f2f2ec" stroke="#d4923c"/>
  
    <rect x="480" y="400" width="22" height="22" fill="#f2f2ec" stroke="#d4923c"/>
  
    <rect x="600" y="330" width="22" height="22" fill="#f2f2ec" stroke="#d4923c"/>
  
  <circle cx="560" cy="360" r="6" fill="#d4923c"/>
  <text x="100" y="170" fill="#d4923c" font-family="ui-monospace, monospace" font-size="14" letter-spacing="0.2em">HOLD TO EXPLORE · DEMO STILL</text>
  <rect x="1000" y="150" width="160" height="70" rx="4" fill="#1c222a" stroke="rgba(212,146,60,0.45)"/>
  <text x="1020" y="180" fill="#9aa3b0" font-family="ui-monospace, monospace" font-size="11">err px</text>
  <text x="1020" y="205" fill="#d4923c" font-family="ui-monospace, monospace" font-size="22">1.4</text>

  <text x="48" y="680" fill="#9aa3b0" font-family="ui-monospace, monospace" font-size="12" letter-spacing="0.12em">PLACEHOLDER MEDIA · REPLACE WITH CAPTURE</text>
</svg>
