<?xml version="1.0" encoding="UTF-8"?>
<svg xmlns="http://www.w3.org/2000/svg" width="1280" height="720" viewBox="0 0 1280 720" role="img" aria-label="Camera K">
  <defs>
    <linearGradient id="g" x1="0" y1="0" x2="1" y2="1">
      <stop offset="0%" stop-color="#1c222a"/>
      <stop offset="55%" stop-color="#0c0e11"/>
      <stop offset="100%" stop-color="#14181e"/>
    </linearGradient>
    <pattern id="grid" width="32" height="32" patternUnits="userSpaceOnUse">
      <path d="M32 0H0V32" fill="none" stroke="rgba(255,255,255,0.04)" stroke-width="1"/>
    </pattern>
  </defs>
  <rect width="1280" height="720" fill="url(#g)"/>
  <rect width="1280" height="720" fill="url(#grid)"/>
  <rect x="24" y="24" width="1232" height="672" rx="6" fill="#14181e" stroke="rgba(255,255,255,0.08)" stroke-width="1"/>
  <rect x="24" y="24" width="1232" height="48" rx="6" fill="#1c222a"/>
  <rect x="24" y="66" width="1232" height="1" fill="rgba(255,255,255,0.06)"/>
  <circle cx="52" cy="48" r="5" fill="#e05c57" opacity="0.85"/>
  <circle cx="72" cy="48" r="5" fill="#e0ad5a" opacity="0.85"/>
  <circle cx="92" cy="48" r="5" fill="#59b87a" opacity="0.85"/>
  <text x="120" y="53" fill="#d4923c" font-family="ui-monospace, Cascadia Code, monospace" font-size="14" letter-spacing="0.18em">STUDIO G · CAMERA K</text>
  
    <rect x="80" y="120" width="520" height="480" rx="4" fill="#0c0e11" stroke="rgba(255,255,255,0.08)"/>
    <text x="110" y="170" fill="#d4923c" font-family="ui-monospace, monospace" font-size="13" letter-spacing="0.16em">MEASURE K</text>
    <ellipse cx="340" cy="360" rx="160" ry="120" fill="none" stroke="#d4923c" stroke-width="2" opacity="0.7"/>
    <circle cx="340" cy="360" r="8" fill="#d4923c"/>
    <path d="M200 280 L480 280 M200 440 L480 440 M220 220 L220 500 M460 220 L460 500" stroke="rgba(212,146,60,0.25)" stroke-width="1"/>
    
      <rect x="250" y="300" width="28" height="28" fill="#eee" stroke="#d4923c"/>
      <text x="256" y="319" fill="#111" font-family="monospace" font-size="10">0</text>
    
      <rect x="420" y="310" width="28" height="28" fill="#eee" stroke="#d4923c"/>
      <text x="426" y="329" fill="#111" font-family="monospace" font-size="10">1</text>
    
      <rect x="280" y="420" width="28" height="28" fill="#eee" stroke="#d4923c"/>
      <text x="286" y="439" fill="#111" font-family="monospace" font-size="10">2</text>
    
      <rect x="400" y="400" width="28" height="28" fill="#eee" stroke="#d4923c"/>
      <text x="406" y="419" fill="#111" font-family="monospace" font-size="10">3</text>
    
    <rect x="640" y="120" width="560" height="480" rx="4" fill="#0c0e11" stroke="rgba(255,255,255,0.08)"/>
    <text x="670" y="170" fill="#9aa3b0" font-family="ui-monospace, monospace" font-size="12">K MATRIX · real intrinsics</text>
    <text x="670" y="230" fill="#ebeef0" font-family="ui-monospace, monospace" font-size="16">fx  1240.2</text>
    <text x="670" y="270" fill="#ebeef0" font-family="ui-monospace, monospace" font-size="16">fy  1241.8</text>
    <text x="670" y="310" fill="#ebeef0" font-family="ui-monospace, monospace" font-size="16">cx   640.1</text>
    <text x="670" y="350" fill="#ebeef0" font-family="ui-monospace, monospace" font-size="16">cy   360.4</text>
    <rect x="670" y="400" width="280" height="32" rx="3" fill="#1c222a" stroke="rgba(255,255,255,0.1)"/>
    <text x="690" y="421" fill="#9aa3b0" font-family="ui-monospace, monospace" font-size="12">FOV guess = placeholder only</text>
  
  <text x="48" y="680" fill="#9aa3b0" font-family="ui-monospace, monospace" font-size="12" letter-spacing="0.12em">PLACEHOLDER MEDIA · REPLACE WITH CAPTURE</text>
</svg>
