<?xml version="1.0" encoding="UTF-8"?>
<svg xmlns="http://www.w3.org/2000/svg" width="1280" height="720" viewBox="0 0 1280 720" role="img" aria-label="Scene">
  <defs>
    <linearGradient id="g" x1="0" y1="0" x2="1" y2="1">
      <stop offset="0%" stop-color="#1c222a"/>
      <stop offset="55%" stop-color="#0c0e11"/>
      <stop offset="100%" stop-color="#14181e"/>
    </linearGradient>
    <pattern id="grid" width="32" height="32" patternUnits="userSpaceOnUse">
      <path d="M32 0H0V32" fill="none" stroke="rgba(255,255,255,0.04)" stroke-width="1"/>
    </pattern>
  </defs>
  <rect width="1280" height="720" fill="url(#g)"/>
  <rect width="1280" height="720" fill="url(#grid)"/>
  <rect x="24" y="24" width="1232" height="672" rx="6" fill="#14181e" stroke="rgba(255,255,255,0.08)" stroke-width="1"/>
  <rect x="24" y="24" width="1232" height="48" rx="6" fill="#1c222a"/>
  <rect x="24" y="66" width="1232" height="1" fill="rgba(255,255,255,0.06)"/>
  <circle cx="52" cy="48" r="5" fill="#e05c57" opacity="0.85"/>
  <circle cx="72" cy="48" r="5" fill="#e0ad5a" opacity="0.85"/>
  <circle cx="92" cy="48" r="5" fill="#59b87a" opacity="0.85"/>
  <text x="120" y="53" fill="#d4923c" font-family="ui-monospace, Cascadia Code, monospace" font-size="14" letter-spacing="0.18em">STUDIO G · SCENE</text>
  
    <rect x="80" y="120" width="720" height="480" rx="4" fill="#0c0e11" stroke="rgba(255,255,255,0.08)"/>
    <path d="M200 500 L640 500 L560 220 L280 220 Z" fill="none" stroke="#d4923c" stroke-width="2" opacity="0.9"/>
    <path d="M280 220 L360 160 L640 160 L560 220" fill="none" stroke="#d4923c" stroke-width="1.5" opacity="0.5"/>
    <path d="M200 500 L280 440 L360 160" fill="none" stroke="rgba(212,146,60,0.35)" stroke-width="1"/>
    
      <rect x="320" y="300" width="22" height="22" fill="#f0f0ea" stroke="#d4923c"/>
      <text x="325" y="315" fill="#111" font-size="10" font-family="monospace">1</text>
    
      <rect x="480" y="280" width="22" height="22" fill="#f0f0ea" stroke="#d4923c"/>
      <text x="485" y="295" fill="#111" font-size="10" font-family="monospace">2</text>
    
      <rect x="400" y="400" width="22" height="22" fill="#f0f0ea" stroke="#d4923c"/>
      <text x="405" y="415" fill="#111" font-size="10" font-family="monospace">3</text>
    
      <rect x="520" y="360" width="22" height="22" fill="#f0f0ea" stroke="#d4923c"/>
      <text x="525" y="375" fill="#111" font-size="10" font-family="monospace">4</text>
    
    <circle cx="400" cy="340" r="3" fill="#59b87a"/>
    <text x="860" y="180" fill="#9aa3b0" font-family="ui-monospace, monospace" font-size="12">SCENE JSON</text>
    <rect x="860" y="200" width="340" height="360" rx="4" fill="#1c222a" stroke="rgba(255,255,255,0.08)"/>
    <text x="880" y="240" fill="#ebeef0" font-family="ui-monospace, monospace" font-size="12">{</text>
    <text x="900" y="270" fill="#9aa3b0" font-family="ui-monospace, monospace" font-size="12">"outline": […],</text>
    <text x="900" y="300" fill="#9aa3b0" font-family="ui-monospace, monospace" font-size="12">"tags": […],</text>
    <text x="900" y="330" fill="#9aa3b0" font-family="ui-monospace, monospace" font-size="12">"K": {…}</text>
    <text x="880" y="370" fill="#ebeef0" font-family="ui-monospace, monospace" font-size="12">}</text>
  
  <text x="48" y="680" fill="#9aa3b0" font-family="ui-monospace, monospace" font-size="12" letter-spacing="0.12em">PLACEHOLDER MEDIA · REPLACE WITH CAPTURE</text>
</svg>
