<?xml version="1.0" encoding="UTF-8"?>
<svg xmlns="http://www.w3.org/2000/svg" width="1280" height="720" viewBox="0 0 1280 720" role="img" aria-label="Setup">
  <defs>
    <linearGradient id="g" x1="0" y1="0" x2="1" y2="1">
      <stop offset="0%" stop-color="#1c222a"/>
      <stop offset="55%" stop-color="#0c0e11"/>
      <stop offset="100%" stop-color="#14181e"/>
    </linearGradient>
    <pattern id="grid" width="32" height="32" patternUnits="userSpaceOnUse">
      <path d="M32 0H0V32" fill="none" stroke="rgba(255,255,255,0.04)" stroke-width="1"/>
    </pattern>
  </defs>
  <rect width="1280" height="720" fill="url(#g)"/>
  <rect width="1280" height="720" fill="url(#grid)"/>
  <rect x="24" y="24" width="1232" height="672" rx="6" fill="#14181e" stroke="rgba(255,255,255,0.08)" stroke-width="1"/>
  <rect x="24" y="24" width="1232" height="48" rx="6" fill="#1c222a"/>
  <rect x="24" y="66" width="1232" height="1" fill="rgba(255,255,255,0.06)"/>
  <circle cx="52" cy="48" r="5" fill="#e05c57" opacity="0.85"/>
  <circle cx="72" cy="48" r="5" fill="#e0ad5a" opacity="0.85"/>
  <circle cx="92" cy="48" r="5" fill="#59b87a" opacity="0.85"/>
  <text x="120" y="53" fill="#d4923c" font-family="ui-monospace, Cascadia Code, monospace" font-size="14" letter-spacing="0.18em">STUDIO G · SETUP</text>
  
    <rect x="56" y="110" width="360" height="520" rx="4" fill="#0c0e11" stroke="rgba(255,255,255,0.08)"/>
    <text x="76" y="150" fill="#d4923c" font-family="ui-monospace, monospace" font-size="13" letter-spacing="0.16em">CASE</text>
    <rect x="76" y="168" width="280" height="28" rx="3" fill="#1c222a" stroke="rgba(212,146,60,0.35)"/>
    <text x="88" y="187" fill="#ebeef0" font-family="ui-monospace, monospace" font-size="13">mould-case-01</text>
    <text x="76" y="240" fill="#9aa3b0" font-family="ui-monospace, monospace" font-size="12">TAGS · id + size_mm</text>
    <rect x="76" y="256" width="280" height="18" rx="2" fill="#1c222a"/>
    <rect x="76" y="284" width="220" height="18" rx="2" fill="#1c222a"/>
    <rect x="76" y="312" width="250" height="18" rx="2" fill="#1c222a"/>
    <text x="76" y="370" fill="#9aa3b0" font-family="ui-monospace, monospace" font-size="12">OUTLINE · CAD</text>
    <path d="M90 420 L150 390 L210 430 L270 380 L320 450" fill="none" stroke="#d4923c" stroke-width="2"/>
    <circle cx="150" cy="390" r="4" fill="#d4923c"/>
    <circle cx="210" cy="430" r="4" fill="#d4923c"/>
    <circle cx="270" cy="380" r="4" fill="#d4923c"/>
    <rect x="460" y="110" width="740" height="520" rx="4" fill="#0c0e11" stroke="rgba(255,255,255,0.08)"/>
    <text x="490" y="160" fill="#9aa3b0" font-family="ui-monospace, monospace" font-size="12" letter-spacing="0.14em">LANDMARKS / CMM</text>
    <rect x="490" y="190" width="680" height="40" rx="3" fill="#1c222a"/>
    <rect x="490" y="250" width="680" height="40" rx="3" fill="#1c222a"/>
    <rect x="490" y="310" width="680" height="40" rx="3" fill="#1c222a"/>
    <rect x="490" y="400" width="200" height="36" rx="3" fill="#d4923c"/>
    <text x="530" y="423" fill="#1f1a12" font-family="ui-sans-serif, system-ui" font-size="14" font-weight="600">Save case</text>
  
  <text x="48" y="680" fill="#9aa3b0" font-family="ui-monospace, monospace" font-size="12" letter-spacing="0.12em">PLACEHOLDER MEDIA · REPLACE WITH CAPTURE</text>
</svg>
