<?xml version="1.0" encoding="UTF-8"?>
<svg xmlns="http://www.w3.org/2000/svg" width="1280" height="720" viewBox="0 0 1280 720" role="img" aria-label="Solve / CMM">
  <defs>
    <linearGradient id="g" x1="0" y1="0" x2="1" y2="1">
      <stop offset="0%" stop-color="#1c222a"/>
      <stop offset="55%" stop-color="#0c0e11"/>
      <stop offset="100%" stop-color="#14181e"/>
    </linearGradient>
    <pattern id="grid" width="32" height="32" patternUnits="userSpaceOnUse">
      <path d="M32 0H0V32" fill="none" stroke="rgba(255,255,255,0.04)" stroke-width="1"/>
    </pattern>
  </defs>
  <rect width="1280" height="720" fill="url(#g)"/>
  <rect width="1280" height="720" fill="url(#grid)"/>
  <rect x="24" y="24" width="1232" height="672" rx="6" fill="#14181e" stroke="rgba(255,255,255,0.08)" stroke-width="1"/>
  <rect x="24" y="24" width="1232" height="48" rx="6" fill="#1c222a"/>
  <rect x="24" y="66" width="1232" height="1" fill="rgba(255,255,255,0.06)"/>
  <circle cx="52" cy="48" r="5" fill="#e05c57" opacity="0.85"/>
  <circle cx="72" cy="48" r="5" fill="#e0ad5a" opacity="0.85"/>
  <circle cx="92" cy="48" r="5" fill="#59b87a" opacity="0.85"/>
  <text x="120" y="53" fill="#d4923c" font-family="ui-monospace, Cascadia Code, monospace" font-size="14" letter-spacing="0.18em">STUDIO G · SOLVE / CMM</text>
  
    <rect x="70" y="120" width="540" height="480" rx="4" fill="#0c0e11" stroke="rgba(212,146,60,0.35)"/>
    <text x="100" y="170" fill="#d4923c" font-family="ui-monospace, monospace" font-size="13" letter-spacing="0.14em">BUILD · PnP</text>
    <rect x="100" y="200" width="480" height="220" rx="3" fill="#1c222a"/>
    <path d="M140 360 L220 260 L300 320 L380 240 L480 350" fill="none" stroke="#d4923c" stroke-width="2"/>
    <circle cx="220" cy="260" r="5" fill="#59b87a"/><circle cx="300" cy="320" r="5" fill="#59b87a"/><circle cx="380" cy="240" r="5" fill="#59b87a"/>
    <text x="100" y="460" fill="#9aa3b0" font-family="ui-monospace, monospace" font-size="12">Capture · annotate · solve</text>
    <rect x="100" y="490" width="160" height="32" rx="3" fill="#d4923c"/>
    <text x="130" y="511" fill="#1f1a12" font-family="system-ui" font-size="13" font-weight="600">Solve PnP</text>
    <rect x="670" y="120" width="540" height="480" rx="4" fill="#0c0e11" stroke="rgba(255,255,255,0.08)"/>
    <text x="700" y="170" fill="#d4923c" font-family="ui-monospace, monospace" font-size="13" letter-spacing="0.14em">BUILD · CMM</text>
    <text x="700" y="230" fill="#ebeef0" font-family="ui-monospace, monospace" font-size="13">tag_id,x_mm,y_mm,z_mm</text>
    <text x="700" y="270" fill="#9aa3b0" font-family="ui-monospace, monospace" font-size="13">01, 120.4,  40.2, 0.0</text>
    <text x="700" y="300" fill="#9aa3b0" font-family="ui-monospace, monospace" font-size="13">02, 280.1,  42.0, 0.1</text>
    <text x="700" y="330" fill="#9aa3b0" font-family="ui-monospace, monospace" font-size="13">03, 121.0, 200.5, 0.0</text>
    <text x="700" y="360" fill="#9aa3b0" font-family="ui-monospace, monospace" font-size="13">04, 279.8, 199.2, 0.2</text>
    <rect x="700" y="420" width="200" height="32" rx="3" fill="#1c222a" stroke="rgba(255,255,255,0.12)"/>
    <text x="730" y="441" fill="#ebeef0" font-family="system-ui" font-size="13">Import CSV</text>
  
  <text x="48" y="680" fill="#9aa3b0" font-family="ui-monospace, monospace" font-size="12" letter-spacing="0.12em">PLACEHOLDER MEDIA · REPLACE WITH CAPTURE</text>
</svg>
