<?xml version="1.0" encoding="UTF-8"?>
<svg xmlns="http://www.w3.org/2000/svg" width="1280" height="720" viewBox="0 0 1280 720" role="img" aria-label="Tags">
  <defs>
    <linearGradient id="g" x1="0" y1="0" x2="1" y2="1">
      <stop offset="0%" stop-color="#1c222a"/>
      <stop offset="55%" stop-color="#0c0e11"/>
      <stop offset="100%" stop-color="#14181e"/>
    </linearGradient>
    <pattern id="grid" width="32" height="32" patternUnits="userSpaceOnUse">
      <path d="M32 0H0V32" fill="none" stroke="rgba(255,255,255,0.04)" stroke-width="1"/>
    </pattern>
  </defs>
  <rect width="1280" height="720" fill="url(#g)"/>
  <rect width="1280" height="720" fill="url(#grid)"/>
  <rect x="24" y="24" width="1232" height="672" rx="6" fill="#14181e" stroke="rgba(255,255,255,0.08)" stroke-width="1"/>
  <rect x="24" y="24" width="1232" height="48" rx="6" fill="#1c222a"/>
  <rect x="24" y="66" width="1232" height="1" fill="rgba(255,255,255,0.06)"/>
  <circle cx="52" cy="48" r="5" fill="#e05c57" opacity="0.85"/>
  <circle cx="72" cy="48" r="5" fill="#e0ad5a" opacity="0.85"/>
  <circle cx="92" cy="48" r="5" fill="#59b87a" opacity="0.85"/>
  <text x="120" y="53" fill="#d4923c" font-family="ui-monospace, Cascadia Code, monospace" font-size="14" letter-spacing="0.18em">STUDIO G · TAGS</text>
  
    <g transform="translate(80,120)">
      <g transform="translate(0,0)"><rect width="120" height="110" rx="3" fill="#f4f4f0"/><g><rect x="20" y="20" width="14" height="14" fill="#ebeef0"/><rect x="36" y="20" width="14" height="14" fill="#ebeef0"/><rect x="52" y="20" width="14" height="14" fill="#ebeef0"/><rect x="68" y="20" width="14" height="14" fill="#ebeef0"/><rect x="84" y="20" width="14" height="14" fill="#ebeef0"/><rect x="20" y="36" width="14" height="14" fill="#ebeef0"/><rect x="36" y="36" width="14" height="14" fill="#ebeef0"/><rect x="68" y="36" width="14" height="14" fill="#ebeef0"/><rect x="84" y="36" width="14" height="14" fill="#ebeef0"/><rect x="20" y="52" width="14" height="14" fill="#ebeef0"/><rect x="52" y="52" width="14" height="14" fill="#ebeef0"/><rect x="84" y="52" width="14" height="14" fill="#ebeef0"/><rect x="20" y="68" width="14" height="14" fill="#ebeef0"/><rect x="36" y="68" width="14" height="14" fill="#ebeef0"/><rect x="68" y="68" width="14" height="14" fill="#ebeef0"/><rect x="84" y="68" width="14" height="14" fill="#ebeef0"/><rect x="20" y="84" width="14" height="14" fill="#ebeef0"/><rect x="36" y="84" width="14" height="14" fill="#ebeef0"/><rect x="52" y="84" width="14" height="14" fill="#ebeef0"/><rect x="68" y="84" width="14" height="14" fill="#ebeef0"/><rect x="84" y="84" width="14" height="14" fill="#ebeef0"/></g><text x="8" y="105" fill="#0c0e11" font-family="monospace" font-size="10">T0</text></g><g transform="translate(160,0)"><rect width="120" height="110" rx="3" fill="#f4f4f0"/><g><rect x="20" y="20" width="14" height="14" fill="#ebeef0"/><rect x="36" y="20" width="14" height="14" fill="#ebeef0"/><rect x="52" y="20" width="14" height="14" fill="#ebeef0"/><rect x="68" y="20" width="14" height="14" fill="#ebeef0"/><rect x="84" y="20" width="14" height="14" fill="#ebeef0"/><rect x="20" y="36" width="14" height="14" fill="#ebeef0"/><rect x="52" y="36" width="14" height="14" fill="#ebeef0"/><rect x="84" y="36" width="14" height="14" fill="#ebeef0"/><rect x="20" y="52" width="14" height="14" fill="#ebeef0"/><rect x="36" y="52" width="14" height="14" fill="#ebeef0"/><rect x="68" y="52" width="14" height="14" fill="#ebeef0"/><rect x="84" y="52" width="14" height="14" fill="#ebeef0"/><rect x="20" y="68" width="14" height="14" fill="#ebeef0"/><rect x="52" y="68" width="14" height="14" fill="#ebeef0"/><rect x="84" y="68" width="14" height="14" fill="#ebeef0"/><rect x="20" y="84" width="14" height="14" fill="#ebeef0"/><rect x="36" y="84" width="14" height="14" fill="#ebeef0"/><rect x="52" y="84" width="14" height="14" fill="#ebeef0"/><rect x="68" y="84" width="14" height="14" fill="#ebeef0"/><rect x="84" y="84" width="14" height="14" fill="#ebeef0"/></g><text x="8" y="105" fill="#0c0e11" font-family="monospace" font-size="10">T1</text></g><g transform="translate(320,0)"><rect width="120" height="110" rx="3" fill="#f4f4f0"/><g><rect x="20" y="20" width="14" height="14" fill="#ebeef0"/><rect x="36" y="20" width="14" height="14" fill="#ebeef0"/><rect x="52" y="20" width="14" height="14" fill="#ebeef0"/><rect x="68" y="20" width="14" height="14" fill="#ebeef0"/><rect x="84" y="20" width="14" height="14" fill="#ebeef0"/><rect x="20" y="36" width="14" height="14" fill="#ebeef0"/><rect x="36" y="36" width="14" height="14" fill="#ebeef0"/><rect x="68" y="36" width="14" height="14" fill="#ebeef0"/><rect x="84" y="36" width="14" height="14" fill="#ebeef0"/><rect x="20" y="52" width="14" height="14" fill="#ebeef0"/><rect x="52" y="52" width="14" height="14" fill="#ebeef0"/><rect x="84" y="52" width="14" height="14" fill="#ebeef0"/><rect x="20" y="68" width="14" height="14" fill="#ebeef0"/><rect x="36" y="68" width="14" height="14" fill="#ebeef0"/><rect x="68" y="68" width="14" height="14" fill="#ebeef0"/><rect x="84" y="68" width="14" height="14" fill="#ebeef0"/><rect x="20" y="84" width="14" height="14" fill="#ebeef0"/><rect x="36" y="84" width="14" height="14" fill="#ebeef0"/><rect x="52" y="84" width="14" height="14" fill="#ebeef0"/><rect x="68" y="84" width="14" height="14" fill="#ebeef0"/><rect x="84" y="84" width="14" height="14" fill="#ebeef0"/></g><text x="8" y="105" fill="#0c0e11" font-family="monospace" font-size="10">T2</text></g><g transform="translate(480,0)"><rect width="120" height="110" rx="3" fill="#f4f4f0"/><g><rect x="20" y="20" width="14" height="14" fill="#ebeef0"/><rect x="36" y="20" width="14" height="14" fill="#ebeef0"/><rect x="52" y="20" width="14" height="14" fill="#ebeef0"/><rect x="68" y="20" width="14" height="14" fill="#ebeef0"/><rect x="84" y="20" width="14" height="14" fill="#ebeef0"/><rect x="20" y="36" width="14" height="14" fill="#ebeef0"/><rect x="52" y="36" width="14" height="14" fill="#ebeef0"/><rect x="84" y="36" width="14" height="14" fill="#ebeef0"/><rect x="20" y="52" width="14" height="14" fill="#ebeef0"/><rect x="36" y="52" width="14" height="14" fill="#ebeef0"/><rect x="68" y="52" width="14" height="14" fill="#ebeef0"/><rect x="84" y="52" width="14" height="14" fill="#ebeef0"/><rect x="20" y="68" width="14" height="14" fill="#ebeef0"/><rect x="52" y="68" width="14" height="14" fill="#ebeef0"/><rect x="84" y="68" width="14" height="14" fill="#ebeef0"/><rect x="20" y="84" width="14" height="14" fill="#ebeef0"/><rect x="36" y="84" width="14" height="14" fill="#ebeef0"/><rect x="52" y="84" width="14" height="14" fill="#ebeef0"/><rect x="68" y="84" width="14" height="14" fill="#ebeef0"/><rect x="84" y="84" width="14" height="14" fill="#ebeef0"/></g><text x="8" y="105" fill="#0c0e11" font-family="monospace" font-size="10">T3</text></g><g transform="translate(0,130)"><rect width="120" height="110" rx="3" fill="#f4f4f0"/><g><rect x="20" y="20" width="14" height="14" fill="#ebeef0"/><rect x="36" y="20" width="14" height="14" fill="#ebeef0"/><rect x="52" y="20" width="14" height="14" fill="#ebeef0"/><rect x="68" y="20" width="14" height="14" fill="#ebeef0"/><rect x="84" y="20" width="14" height="14" fill="#ebeef0"/><rect x="20" y="36" width="14" height="14" fill="#ebeef0"/><rect x="52" y="36" width="14" height="14" fill="#ebeef0"/><rect x="84" y="36" width="14" height="14" fill="#ebeef0"/><rect x="20" y="52" width="14" height="14" fill="#ebeef0"/><rect x="36" y="52" width="14" height="14" fill="#ebeef0"/><rect x="68" y="52" width="14" height="14" fill="#ebeef0"/><rect x="84" y="52" width="14" height="14" fill="#ebeef0"/><rect x="20" y="68" width="14" height="14" fill="#ebeef0"/><rect x="52" y="68" width="14" height="14" fill="#ebeef0"/><rect x="84" y="68" width="14" height="14" fill="#ebeef0"/><rect x="20" y="84" width="14" height="14" fill="#ebeef0"/><rect x="36" y="84" width="14" height="14" fill="#ebeef0"/><rect x="52" y="84" width="14" height="14" fill="#ebeef0"/><rect x="68" y="84" width="14" height="14" fill="#ebeef0"/><rect x="84" y="84" width="14" height="14" fill="#ebeef0"/></g><text x="8" y="105" fill="#0c0e11" font-family="monospace" font-size="10">T4</text></g><g transform="translate(160,130)"><rect width="120" height="110" rx="3" fill="#f4f4f0"/><g><rect x="20" y="20" width="14" height="14" fill="#ebeef0"/><rect x="36" y="20" width="14" height="14" fill="#ebeef0"/><rect x="52" y="20" width="14" height="14" fill="#ebeef0"/><rect x="68" y="20" width="14" height="14" fill="#ebeef0"/><rect x="84" y="20" width="14" height="14" fill="#ebeef0"/><rect x="20" y="36" width="14" height="14" fill="#ebeef0"/><rect x="36" y="36" width="14" height="14" fill="#ebeef0"/><rect x="68" y="36" width="14" height="14" fill="#ebeef0"/><rect x="84" y="36" width="14" height="14" fill="#ebeef0"/><rect x="20" y="52" width="14" height="14" fill="#ebeef0"/><rect x="52" y="52" width="14" height="14" fill="#ebeef0"/><rect x="84" y="52" width="14" height="14" fill="#ebeef0"/><rect x="20" y="68" width="14" height="14" fill="#ebeef0"/><rect x="36" y="68" width="14" height="14" fill="#ebeef0"/><rect x="68" y="68" width="14" height="14" fill="#ebeef0"/><rect x="84" y="68" width="14" height="14" fill="#ebeef0"/><rect x="20" y="84" width="14" height="14" fill="#ebeef0"/><rect x="36" y="84" width="14" height="14" fill="#ebeef0"/><rect x="52" y="84" width="14" height="14" fill="#ebeef0"/><rect x="68" y="84" width="14" height="14" fill="#ebeef0"/><rect x="84" y="84" width="14" height="14" fill="#ebeef0"/></g><text x="8" y="105" fill="#0c0e11" font-family="monospace" font-size="10">T5</text></g><g transform="translate(320,130)"><rect width="120" height="110" rx="3" fill="#f4f4f0"/><g><rect x="20" y="20" width="14" height="14" fill="#ebeef0"/><rect x="36" y="20" width="14" height="14" fill="#ebeef0"/><rect x="52" y="20" width="14" height="14" fill="#ebeef0"/><rect x="68" y="20" width="14" height="14" fill="#ebeef0"/><rect x="84" y="20" width="14" height="14" fill="#ebeef0"/><rect x="20" y="36" width="14" height="14" fill="#ebeef0"/><rect x="52" y="36" width="14" height="14" fill="#ebeef0"/><rect x="84" y="36" width="14" height="14" fill="#ebeef0"/><rect x="20" y="52" width="14" height="14" fill="#ebeef0"/><rect x="36" y="52" width="14" height="14" fill="#ebeef0"/><rect x="68" y="52" width="14" height="14" fill="#ebeef0"/><rect x="84" y="52" width="14" height="14" fill="#ebeef0"/><rect x="20" y="68" width="14" height="14" fill="#ebeef0"/><rect x="52" y="68" width="14" height="14" fill="#ebeef0"/><rect x="84" y="68" width="14" height="14" fill="#ebeef0"/><rect x="20" y="84" width="14" height="14" fill="#ebeef0"/><rect x="36" y="84" width="14" height="14" fill="#ebeef0"/><rect x="52" y="84" width="14" height="14" fill="#ebeef0"/><rect x="68" y="84" width="14" height="14" fill="#ebeef0"/><rect x="84" y="84" width="14" height="14" fill="#ebeef0"/></g><text x="8" y="105" fill="#0c0e11" font-family="monospace" font-size="10">T6</text></g><g transform="translate(480,130)"><rect width="120" height="110" rx="3" fill="#f4f4f0"/><g><rect x="20" y="20" width="14" height="14" fill="#ebeef0"/><rect x="36" y="20" width="14" height="14" fill="#ebeef0"/><rect x="52" y="20" width="14" height="14" fill="#ebeef0"/><rect x="68" y="20" width="14" height="14" fill="#ebeef0"/><rect x="84" y="20" width="14" height="14" fill="#ebeef0"/><rect x="20" y="36" width="14" height="14" fill="#ebeef0"/><rect x="36" y="36" width="14" height="14" fill="#ebeef0"/><rect x="68" y="36" width="14" height="14" fill="#ebeef0"/><rect x="84" y="36" width="14" height="14" fill="#ebeef0"/><rect x="20" y="52" width="14" height="14" fill="#ebeef0"/><rect x="52" y="52" width="14" height="14" fill="#ebeef0"/><rect x="84" y="52" width="14" height="14" fill="#ebeef0"/><rect x="20" y="68" width="14" height="14" fill="#ebeef0"/><rect x="36" y="68" width="14" height="14" fill="#ebeef0"/><rect x="68" y="68" width="14" height="14" fill="#ebeef0"/><rect x="84" y="68" width="14" height="14" fill="#ebeef0"/><rect x="20" y="84" width="14" height="14" fill="#ebeef0"/><rect x="36" y="84" width="14" height="14" fill="#ebeef0"/><rect x="52" y="84" width="14" height="14" fill="#ebeef0"/><rect x="68" y="84" width="14" height="14" fill="#ebeef0"/><rect x="84" y="84" width="14" height="14" fill="#ebeef0"/></g><text x="8" y="105" fill="#0c0e11" font-family="monospace" font-size="10">T7</text></g><g transform="translate(0,260)"><rect width="120" height="110" rx="3" fill="#f4f4f0"/><g><rect x="20" y="20" width="14" height="14" fill="#ebeef0"/><rect x="36" y="20" width="14" height="14" fill="#ebeef0"/><rect x="52" y="20" width="14" height="14" fill="#ebeef0"/><rect x="68" y="20" width="14" height="14" fill="#ebeef0"/><rect x="84" y="20" width="14" height="14" fill="#ebeef0"/><rect x="20" y="36" width="14" height="14" fill="#ebeef0"/><rect x="36" y="36" width="14" height="14" fill="#ebeef0"/><rect x="68" y="36" width="14" height="14" fill="#ebeef0"/><rect x="84" y="36" width="14" height="14" fill="#ebeef0"/><rect x="20" y="52" width="14" height="14" fill="#ebeef0"/><rect x="52" y="52" width="14" height="14" fill="#ebeef0"/><rect x="84" y="52" width="14" height="14" fill="#ebeef0"/><rect x="20" y="68" width="14" height="14" fill="#ebeef0"/><rect x="36" y="68" width="14" height="14" fill="#ebeef0"/><rect x="68" y="68" width="14" height="14" fill="#ebeef0"/><rect x="84" y="68" width="14" height="14" fill="#ebeef0"/><rect x="20" y="84" width="14" height="14" fill="#ebeef0"/><rect x="36" y="84" width="14" height="14" fill="#ebeef0"/><rect x="52" y="84" width="14" height="14" fill="#ebeef0"/><rect x="68" y="84" width="14" height="14" fill="#ebeef0"/><rect x="84" y="84" width="14" height="14" fill="#ebeef0"/></g><text x="8" y="105" fill="#0c0e11" font-family="monospace" font-size="10">T8</text></g><g transform="translate(160,260)"><rect width="120" height="110" rx="3" fill="#f4f4f0"/><g><rect x="20" y="20" width="14" height="14" fill="#ebeef0"/><rect x="36" y="20" width="14" height="14" fill="#ebeef0"/><rect x="52" y="20" width="14" height="14" fill="#ebeef0"/><rect x="68" y="20" width="14" height="14" fill="#ebeef0"/><rect x="84" y="20" width="14" height="14" fill="#ebeef0"/><rect x="20" y="36" width="14" height="14" fill="#ebeef0"/><rect x="52" y="36" width="14" height="14" fill="#ebeef0"/><rect x="84" y="36" width="14" height="14" fill="#ebeef0"/><rect x="20" y="52" width="14" height="14" fill="#ebeef0"/><rect x="36" y="52" width="14" height="14" fill="#ebeef0"/><rect x="68" y="52" width="14" height="14" fill="#ebeef0"/><rect x="84" y="52" width="14" height="14" fill="#ebeef0"/><rect x="20" y="68" width="14" height="14" fill="#ebeef0"/><rect x="52" y="68" width="14" height="14" fill="#ebeef0"/><rect x="84" y="68" width="14" height="14" fill="#ebeef0"/><rect x="20" y="84" width="14" height="14" fill="#ebeef0"/><rect x="36" y="84" width="14" height="14" fill="#ebeef0"/><rect x="52" y="84" width="14" height="14" fill="#ebeef0"/><rect x="68" y="84" width="14" height="14" fill="#ebeef0"/><rect x="84" y="84" width="14" height="14" fill="#ebeef0"/></g><text x="8" y="105" fill="#0c0e11" font-family="monospace" font-size="10">T9</text></g><g transform="translate(320,260)"><rect width="120" height="110" rx="3" fill="#f4f4f0"/><g><rect x="20" y="20" width="14" height="14" fill="#ebeef0"/><rect x="36" y="20" width="14" height="14" fill="#ebeef0"/><rect x="52" y="20" width="14" height="14" fill="#ebeef0"/><rect x="68" y="20" width="14" height="14" fill="#ebeef0"/><rect x="84" y="20" width="14" height="14" fill="#ebeef0"/><rect x="20" y="36" width="14" height="14" fill="#ebeef0"/><rect x="36" y="36" width="14" height="14" fill="#ebeef0"/><rect x="68" y="36" width="14" height="14" fill="#ebeef0"/><rect x="84" y="36" width="14" height="14" fill="#ebeef0"/><rect x="20" y="52" width="14" height="14" fill="#ebeef0"/><rect x="52" y="52" width="14" height="14" fill="#ebeef0"/><rect x="84" y="52" width="14" height="14" fill="#ebeef0"/><rect x="20" y="68" width="14" height="14" fill="#ebeef0"/><rect x="36" y="68" width="14" height="14" fill="#ebeef0"/><rect x="68" y="68" width="14" height="14" fill="#ebeef0"/><rect x="84" y="68" width="14" height="14" fill="#ebeef0"/><rect x="20" y="84" width="14" height="14" fill="#ebeef0"/><rect x="36" y="84" width="14" height="14" fill="#ebeef0"/><rect x="52" y="84" width="14" height="14" fill="#ebeef0"/><rect x="68" y="84" width="14" height="14" fill="#ebeef0"/><rect x="84" y="84" width="14" height="14" fill="#ebeef0"/></g><text x="8" y="105" fill="#0c0e11" font-family="monospace" font-size="10">T10</text></g><g transform="translate(480,260)"><rect width="120" height="110" rx="3" fill="#f4f4f0"/><g><rect x="20" y="20" width="14" height="14" fill="#ebeef0"/><rect x="36" y="20" width="14" height="14" fill="#ebeef0"/><rect x="52" y="20" width="14" height="14" fill="#ebeef0"/><rect x="68" y="20" width="14" height="14" fill="#ebeef0"/><rect x="84" y="20" width="14" height="14" fill="#ebeef0"/><rect x="20" y="36" width="14" height="14" fill="#ebeef0"/><rect x="52" y="36" width="14" height="14" fill="#ebeef0"/><rect x="84" y="36" width="14" height="14" fill="#ebeef0"/><rect x="20" y="52" width="14" height="14" fill="#ebeef0"/><rect x="36" y="52" width="14" height="14" fill="#ebeef0"/><rect x="68" y="52" width="14" height="14" fill="#ebeef0"/><rect x="84" y="52" width="14" height="14" fill="#ebeef0"/><rect x="20" y="68" width="14" height="14" fill="#ebeef0"/><rect x="52" y="68" width="14" height="14" fill="#ebeef0"/><rect x="84" y="68" width="14" height="14" fill="#ebeef0"/><rect x="20" y="84" width="14" height="14" fill="#ebeef0"/><rect x="36" y="84" width="14" height="14" fill="#ebeef0"/><rect x="52" y="84" width="14" height="14" fill="#ebeef0"/><rect x="68" y="84" width="14" height="14" fill="#ebeef0"/><rect x="84" y="84" width="14" height="14" fill="#ebeef0"/></g><text x="8" y="105" fill="#0c0e11" font-family="monospace" font-size="10">T11</text></g><g transform="translate(0,390)"><rect width="120" height="110" rx="3" fill="#f4f4f0"/><g><rect x="20" y="20" width="14" height="14" fill="#ebeef0"/><rect x="36" y="20" width="14" height="14" fill="#ebeef0"/><rect x="52" y="20" width="14" height="14" fill="#ebeef0"/><rect x="68" y="20" width="14" height="14" fill="#ebeef0"/><rect x="84" y="20" width="14" height="14" fill="#ebeef0"/><rect x="20" y="36" width="14" height="14" fill="#ebeef0"/><rect x="52" y="36" width="14" height="14" fill="#ebeef0"/><rect x="84" y="36" width="14" height="14" fill="#ebeef0"/><rect x="20" y="52" width="14" height="14" fill="#ebeef0"/><rect x="36" y="52" width="14" height="14" fill="#ebeef0"/><rect x="68" y="52" width="14" height="14" fill="#ebeef0"/><rect x="84" y="52" width="14" height="14" fill="#ebeef0"/><rect x="20" y="68" width="14" height="14" fill="#ebeef0"/><rect x="52" y="68" width="14" height="14" fill="#ebeef0"/><rect x="84" y="68" width="14" height="14" fill="#ebeef0"/><rect x="20" y="84" width="14" height="14" fill="#ebeef0"/><rect x="36" y="84" width="14" height="14" fill="#ebeef0"/><rect x="52" y="84" width="14" height="14" fill="#ebeef0"/><rect x="68" y="84" width="14" height="14" fill="#ebeef0"/><rect x="84" y="84" width="14" height="14" fill="#ebeef0"/></g><text x="8" y="105" fill="#0c0e11" font-family="monospace" font-size="10">T12</text></g><g transform="translate(160,390)"><rect width="120" height="110" rx="3" fill="#f4f4f0"/><g><rect x="20" y="20" width="14" height="14" fill="#ebeef0"/><rect x="36" y="20" width="14" height="14" fill="#ebeef0"/><rect x="52" y="20" width="14" height="14" fill="#ebeef0"/><rect x="68" y="20" width="14" height="14" fill="#ebeef0"/><rect x="84" y="20" width="14" height="14" fill="#ebeef0"/><rect x="20" y="36" width="14" height="14" fill="#ebeef0"/><rect x="36" y="36" width="14" height="14" fill="#ebeef0"/><rect x="68" y="36" width="14" height="14" fill="#ebeef0"/><rect x="84" y="36" width="14" height="14" fill="#ebeef0"/><rect x="20" y="52" width="14" height="14" fill="#ebeef0"/><rect x="52" y="52" width="14" height="14" fill="#ebeef0"/><rect x="84" y="52" width="14" height="14" fill="#ebeef0"/><rect x="20" y="68" width="14" height="14" fill="#ebeef0"/><rect x="36" y="68" width="14" height="14" fill="#ebeef0"/><rect x="68" y="68" width="14" height="14" fill="#ebeef0"/><rect x="84" y="68" width="14" height="14" fill="#ebeef0"/><rect x="20" y="84" width="14" height="14" fill="#ebeef0"/><rect x="36" y="84" width="14" height="14" fill="#ebeef0"/><rect x="52" y="84" width="14" height="14" fill="#ebeef0"/><rect x="68" y="84" width="14" height="14" fill="#ebeef0"/><rect x="84" y="84" width="14" height="14" fill="#ebeef0"/></g><text x="8" y="105" fill="#0c0e11" font-family="monospace" font-size="10">T13</text></g><g transform="translate(320,390)"><rect width="120" height="110" rx="3" fill="#f4f4f0"/><g><rect x="20" y="20" width="14" height="14" fill="#ebeef0"/><rect x="36" y="20" width="14" height="14" fill="#ebeef0"/><rect x="52" y="20" width="14" height="14" fill="#ebeef0"/><rect x="68" y="20" width="14" height="14" fill="#ebeef0"/><rect x="84" y="20" width="14" height="14" fill="#ebeef0"/><rect x="20" y="36" width="14" height="14" fill="#ebeef0"/><rect x="52" y="36" width="14" height="14" fill="#ebeef0"/><rect x="84" y="36" width="14" height="14" fill="#ebeef0"/><rect x="20" y="52" width="14" height="14" fill="#ebeef0"/><rect x="36" y="52" width="14" height="14" fill="#ebeef0"/><rect x="68" y="52" width="14" height="14" fill="#ebeef0"/><rect x="84" y="52" width="14" height="14" fill="#ebeef0"/><rect x="20" y="68" width="14" height="14" fill="#ebeef0"/><rect x="52" y="68" width="14" height="14" fill="#ebeef0"/><rect x="84" y="68" width="14" height="14" fill="#ebeef0"/><rect x="20" y="84" width="14" height="14" fill="#ebeef0"/><rect x="36" y="84" width="14" height="14" fill="#ebeef0"/><rect x="52" y="84" width="14" height="14" fill="#ebeef0"/><rect x="68" y="84" width="14" height="14" fill="#ebeef0"/><rect x="84" y="84" width="14" height="14" fill="#ebeef0"/></g><text x="8" y="105" fill="#0c0e11" font-family="monospace" font-size="10">T14</text></g><g transform="translate(480,390)"><rect width="120" height="110" rx="3" fill="#f4f4f0"/><g><rect x="20" y="20" width="14" height="14" fill="#ebeef0"/><rect x="36" y="20" width="14" height="14" fill="#ebeef0"/><rect x="52" y="20" width="14" height="14" fill="#ebeef0"/><rect x="68" y="20" width="14" height="14" fill="#ebeef0"/><rect x="84" y="20" width="14" height="14" fill="#ebeef0"/><rect x="20" y="36" width="14" height="14" fill="#ebeef0"/><rect x="36" y="36" width="14" height="14" fill="#ebeef0"/><rect x="68" y="36" width="14" height="14" fill="#ebeef0"/><rect x="84" y="36" width="14" height="14" fill="#ebeef0"/><rect x="20" y="52" width="14" height="14" fill="#ebeef0"/><rect x="52" y="52" width="14" height="14" fill="#ebeef0"/><rect x="84" y="52" width="14" height="14" fill="#ebeef0"/><rect x="20" y="68" width="14" height="14" fill="#ebeef0"/><rect x="36" y="68" width="14" height="14" fill="#ebeef0"/><rect x="68" y="68" width="14" height="14" fill="#ebeef0"/><rect x="84" y="68" width="14" height="14" fill="#ebeef0"/><rect x="20" y="84" width="14" height="14" fill="#ebeef0"/><rect x="36" y="84" width="14" height="14" fill="#ebeef0"/><rect x="52" y="84" width="14" height="14" fill="#ebeef0"/><rect x="68" y="84" width="14" height="14" fill="#ebeef0"/><rect x="84" y="84" width="14" height="14" fill="#ebeef0"/></g><text x="8" y="105" fill="#0c0e11" font-family="monospace" font-size="10">T15</text></g>
    </g>
    <rect x="900" y="140" width="300" height="300" fill="#f4f4f0" stroke="#d4923c" stroke-width="2"/>
    <rect x="920" y="160" width="28" height="28" fill="#111"/><rect x="952" y="160" width="28" height="28" fill="#f4f4f0"/><rect x="984" y="160" width="28" height="28" fill="#111"/><rect x="1016" y="160" width="28" height="28" fill="#f4f4f0"/><rect x="1048" y="160" width="28" height="28" fill="#111"/><rect x="1080" y="160" width="28" height="28" fill="#f4f4f0"/><rect x="1112" y="160" width="28" height="28" fill="#111"/><rect x="1144" y="160" width="28" height="28" fill="#f4f4f0"/><rect x="920" y="192" width="28" height="28" fill="#f4f4f0"/><rect x="952" y="192" width="28" height="28" fill="#111"/><rect x="984" y="192" width="28" height="28" fill="#f4f4f0"/><rect x="1016" y="192" width="28" height="28" fill="#111"/><rect x="1048" y="192" width="28" height="28" fill="#f4f4f0"/><rect x="1080" y="192" width="28" height="28" fill="#111"/><rect x="1112" y="192" width="28" height="28" fill="#f4f4f0"/><rect x="1144" y="192" width="28" height="28" fill="#111"/><rect x="920" y="224" width="28" height="28" fill="#111"/><rect x="952" y="224" width="28" height="28" fill="#f4f4f0"/><rect x="984" y="224" width="28" height="28" fill="#111"/><rect x="1016" y="224" width="28" height="28" fill="#f4f4f0"/><rect x="1048" y="224" width="28" height="28" fill="#111"/><rect x="1080" y="224" width="28" height="28" fill="#f4f4f0"/><rect x="1112" y="224" width="28" height="28" fill="#111"/><rect x="1144" y="224" width="28" height="28" fill="#f4f4f0"/><rect x="920" y="256" width="28" height="28" fill="#f4f4f0"/><rect x="952" y="256" width="28" height="28" fill="#111"/><rect x="984" y="256" width="28" height="28" fill="#f4f4f0"/><rect x="1016" y="256" width="28" height="28" fill="#111"/><rect x="1048" y="256" width="28" height="28" fill="#f4f4f0"/><rect x="1080" y="256" width="28" height="28" fill="#111"/><rect x="1112" y="256" width="28" height="28" fill="#f4f4f0"/><rect x="1144" y="256" width="28" height="28" fill="#111"/><rect x="920" y="288" width="28" height="28" fill="#111"/><rect x="952" y="288" width="28" height="28" fill="#f4f4f0"/><rect x="984" y="288" width="28" height="28" fill="#111"/><rect x="1016" y="288" width="28" height="28" fill="#f4f4f0"/><rect x="1048" y="288" width="28" height="28" fill="#111"/><rect x="1080" y="288" width="28" height="28" fill="#f4f4f0"/><rect x="1112" y="288" width="28" height="28" fill="#111"/><rect x="1144" y="288" width="28" height="28" fill="#f4f4f0"/><rect x="920" y="320" width="28" height="28" fill="#f4f4f0"/><rect x="952" y="320" width="28" height="28" fill="#111"/><rect x="984" y="320" width="28" height="28" fill="#f4f4f0"/><rect x="1016" y="320" width="28" height="28" fill="#111"/><rect x="1048" y="320" width="28" height="28" fill="#f4f4f0"/><rect x="1080" y="320" width="28" height="28" fill="#111"/><rect x="1112" y="320" width="28" height="28" fill="#f4f4f0"/><rect x="1144" y="320" width="28" height="28" fill="#111"/><rect x="920" y="352" width="28" height="28" fill="#111"/><rect x="952" y="352" width="28" height="28" fill="#f4f4f0"/><rect x="984" y="352" width="28" height="28" fill="#111"/><rect x="1016" y="352" width="28" height="28" fill="#f4f4f0"/><rect x="1048" y="352" width="28" height="28" fill="#111"/><rect x="1080" y="352" width="28" height="28" fill="#f4f4f0"/><rect x="1112" y="352" width="28" height="28" fill="#111"/><rect x="1144" y="352" width="28" height="28" fill="#f4f4f0"/><rect x="920" y="384" width="28" height="28" fill="#f4f4f0"/><rect x="952" y="384" width="28" height="28" fill="#111"/><rect x="984" y="384" width="28" height="28" fill="#f4f4f0"/><rect x="1016" y="384" width="28" height="28" fill="#111"/><rect x="1048" y="384" width="28" height="28" fill="#f4f4f0"/><rect x="1080" y="384" width="28" height="28" fill="#111"/><rect x="1112" y="384" width="28" height="28" fill="#f4f4f0"/><rect x="1144" y="384" width="28" height="28" fill="#111"/>
    <text x="900" y="470" fill="#9aa3b0" font-family="ui-monospace, monospace" font-size="12">ChArUco · actual size</text>
  
  <text x="48" y="680" fill="#9aa3b0" font-family="ui-monospace, monospace" font-size="12" letter-spacing="0.12em">PLACEHOLDER MEDIA · REPLACE WITH CAPTURE</text>
</svg>
