<?xml version="1.0" encoding="UTF-8"?>
<svg xmlns="http://www.w3.org/2000/svg" width="1280" height="720" viewBox="0 0 1280 720" role="img" aria-label="Track">
  <defs>
    <linearGradient id="g" x1="0" y1="0" x2="1" y2="1">
      <stop offset="0%" stop-color="#1c222a"/>
      <stop offset="55%" stop-color="#0c0e11"/>
      <stop offset="100%" stop-color="#14181e"/>
    </linearGradient>
    <pattern id="grid" width="32" height="32" patternUnits="userSpaceOnUse">
      <path d="M32 0H0V32" fill="none" stroke="rgba(255,255,255,0.04)" stroke-width="1"/>
    </pattern>
  </defs>
  <rect width="1280" height="720" fill="url(#g)"/>
  <rect width="1280" height="720" fill="url(#grid)"/>
  <rect x="24" y="24" width="1232" height="672" rx="6" fill="#14181e" stroke="rgba(255,255,255,0.08)" stroke-width="1"/>
  <rect x="24" y="24" width="1232" height="48" rx="6" fill="#1c222a"/>
  <rect x="24" y="66" width="1232" height="1" fill="rgba(255,255,255,0.06)"/>
  <circle cx="52" cy="48" r="5" fill="#e05c57" opacity="0.85"/>
  <circle cx="72" cy="48" r="5" fill="#e0ad5a" opacity="0.85"/>
  <circle cx="92" cy="48" r="5" fill="#59b87a" opacity="0.85"/>
  <text x="120" y="53" fill="#d4923c" font-family="ui-monospace, Cascadia Code, monospace" font-size="14" letter-spacing="0.18em">STUDIO G · TRACK</text>
  
    <rect x="80" y="120" width="900" height="480" rx="4" fill="#0c0e11" stroke="rgba(255,255,255,0.08)"/>
    <ellipse cx="420" cy="360" rx="280" ry="160" fill="#1c222a" opacity="0.8"/>
    <path d="M220 400 C300 280, 500 260, 620 380 S780 450, 700 300" fill="none" stroke="#d4923c" stroke-width="2.5"/>
    <path d="M240 410 C310 300, 490 280, 600 390" fill="none" stroke="#59b87a" stroke-width="1.5" opacity="0.8"/>
    
      <rect x="300" y="340" width="20" height="20" fill="#f2f2ec" stroke="#d4923c"/>
    
      <rect x="450" y="300" width="20" height="20" fill="#f2f2ec" stroke="#d4923c"/>
    
      <rect x="560" y="360" width="20" height="20" fill="#f2f2ec" stroke="#d4923c"/>
    
      <rect x="380" y="400" width="20" height="20" fill="#f2f2ec" stroke="#d4923c"/>
    
    <rect x="1000" y="140" width="200" height="120" rx="4" fill="#1c222a" stroke="rgba(212,146,60,0.4)"/>
    <text x="1020" y="180" fill="#9aa3b0" font-family="ui-monospace, monospace" font-size="12">err px</text>
    <text x="1020" y="220" fill="#d4923c" font-family="ui-monospace, monospace" font-size="28">1.4</text>
    <rect x="1000" y="290" width="200" height="100" rx="4" fill="#1c222a" stroke="rgba(255,255,255,0.08)"/>
    <text x="1020" y="330" fill="#9aa3b0" font-family="ui-monospace, monospace" font-size="12">approx mm</text>
    <text x="1020" y="365" fill="#ebeef0" font-family="ui-monospace, monospace" font-size="22">~0.3</text>
    <text x="100" y="640" fill="#9aa3b0" font-family="ui-monospace, monospace" font-size="12">LIVE OUTLINE LOCK · not a CMM certificate</text>
  
  <text x="48" y="680" fill="#9aa3b0" font-family="ui-monospace, monospace" font-size="12" letter-spacing="0.12em">PLACEHOLDER MEDIA · REPLACE WITH CAPTURE</text>
</svg>
